# xmcd
#
# Track frame offsets: 
#        150
#        15335
#        48650
#        70047
#        88835
#        119435
#        142715
#        197420
#        219620
#
# Disc length: 3265 seconds
#
# Revision: 2
# Processed by: cddbd v1.5.2PL0 Copyright (c) Steve Scherf et al.
# Submitted via: ExactAudioCopy v0.99pb4
#
DISCID=760cbf09
DTITLE=Buddy Guy - Sweet Tea
DYEAR=1900
DGENRE=
TTITLE0=Done Got Old
TTITLE1=Baby Please Don't Leave Me
TTITLE2=Look What All You Got
TTITLE3=Stay All Night
TTITLE4=Tramp
TTITLE5=She Got the Devil in Her
TTITLE6=I Gotta Try You Girl
TTITLE7=Who's Been Foolin' You
TTITLE8=It's a Jungle Out There
EXTD=
EXTT0=
EXTT1=
EXTT2=
EXTT3=
EXTT4=
EXTT5=
EXTT6=
EXTT7=
EXTT8=
PLAYORDER=
